<svg xmlns="http://www.w3.org/2000/svg" viewBox="0 0 64 64" role="img" aria-label="Mobius strip">
    <defs>
        <linearGradient id="mobius-gradient" x1="10" y1="50" x2="54" y2="14" gradientUnits="userSpaceOnUse">
            <stop offset="0" stop-color="#111111"/>
            <stop offset="0.5" stop-color="#5f6f7f"/>
            <stop offset="1" stop-color="#111111"/>
        </linearGradient>
    </defs>
    <rect width="64" height="64" rx="14" fill="#ffffff"/>
    <path
        d="M11 38C17 23 27 17 37 19C48 21 55 31 52 39C49 47 38 48 28 39C19 31 17 25 23 21C31 16 44 18 53 29"
        fill="none"
        stroke="url(#mobius-gradient)"
        stroke-width="8"
        stroke-linecap="round"
        stroke-linejoin="round"/>
    <path
        d="M23 21C31 16 44 18 53 29"
        fill="none"
        stroke="#111111"
        stroke-width="8"
        stroke-linecap="round"
        stroke-linejoin="round"/>
    <path
        d="M27 39C34 45 43 48 49 43"
        fill="none"
        stroke="#ffffff"
        stroke-width="3.2"
        stroke-linecap="round"/>
    <path
        d="M18 35C22 26 29 22 37 23"
        fill="none"
        stroke="#ffffff"
        stroke-width="3.2"
        stroke-linecap="round"
        opacity="0.9"/>
</svg>
